<?xml version="1.0" standalone="no"?>
<!DOCTYPE svg PUBLIC "-//W3C//DTD SVG 20010904//EN"
 "http://www.w3.org/TR/2001/REC-SVG-20010904/DTD/svg10.dtd">
<svg version="1.0" xmlns="http://www.w3.org/2000/svg"
 width="1024.000000pt" height="1024.000000pt" viewBox="0 0 1024.000000 1024.000000"
 preserveAspectRatio="xMidYMid meet">

<g transform="translate(0.000000,1024.000000) scale(0.100000,-0.100000)"
fill="#000000" stroke="none">
<path d="M0 5120 l0 -5120 5120 0 5120 0 0 5120 0 5120 -5120 0 -5120 0 0
-5120z m5278 2883 c69 -51 104 -141 88 -226 -8 -45 -77 -122 -121 -137 -134
-44 -262 34 -273 166 -8 92 31 163 113 208 42 23 156 16 193 -11z m2359 -380
c-5 -418 -8 -453 -63 -589 -46 -116 -110 -200 -292 -384 l-173 -175 4 355 c4
321 7 363 26 435 41 154 116 281 240 403 62 61 59 62 -64 11 -133 -55 -275
-192 -346 -334 -65 -132 -69 -165 -69 -643 0 -420 -3 -462 -34 -462 -7 0 -55
42 -106 94 l-92 94 1 359 c1 197 7 392 12 433 58 423 463 784 887 789 l74 1
-5 -387z m-3397 297 c40 -40 12 -120 -43 -120 -41 0 -67 27 -67 70 0 29 6 43
22 54 31 22 64 20 88 -4z m439 -164 c56 -30 77 -97 47 -154 -8 -15 -81 -92
-163 -172 -81 -79 -358 -353 -614 -607 -297 -294 -477 -465 -493 -469 -37 -9
-95 2 -117 22 -27 24 -41 84 -29 120 12 32 1207 1220 1262 1254 39 24 69 25
107 6z m1122 -15 c46 -46 35 -117 -22 -146 -46 -24 -95 -13 -120 28 -61 97 61
198 142 118z m-1951 -50 c29 -20 46 -76 36 -115 -8 -31 -770 -793 -816 -815
-65 -32 -150 22 -150 95 0 50 19 81 97 153 37 36 212 208 388 382 210 208 329
319 345 321 36 7 71 -1 100 -21z m2421 -120 c52 -52 33 -130 -36 -147 -40 -10
-74 4 -96 39 -57 91 56 184 132 108z m-601 -320 c0 -5 -107 -113 -237 -240
l-238 -231 -50 0 c-122 -1 -341 -44 -487 -96 -148 -53 -354 -167 -459 -255
l-46 -38 -21 22 -22 23 183 179 c100 99 288 284 418 412 l236 233 361 0 c212
0 362 -4 362 -9z m587 -226 c77 -23 136 -74 174 -150 29 -60 31 -70 27 -142
-5 -90 -22 -129 -81 -191 -104 -107 -281 -110 -396 -6 -228 205 -18 576 276
489z m-3318 -639 l143 -144 -45 -83 c-199 -369 -304 -805 -277 -1156 32 -429
162 -778 400 -1078 55 -68 894 -903 1062 -1055 l47 -43 -62 -58 c-37 -36 -64
-54 -66 -47 -2 7 -17 25 -32 40 -49 50 -153 32 -179 -31 -11 -27 -10 -52 2
-112 2 -11 -25 -41 -73 -82 l-76 -65 -34 20 c-108 65 -247 164 -242 172 3 5 2
6 -3 3 -13 -8 -107 67 -268 213 -258 232 -511 561 -659 856 -252 502 -350
1136 -261 1694 30 190 123 488 213 681 66 142 238 419 260 419 4 0 71 -65 150
-144z m2452 -41 c150 -26 323 -99 441 -186 l70 -52 -112 -112 -112 -113 -82
44 c-114 60 -214 91 -341 105 -184 20 -362 -16 -534 -107 -275 -145 -457 -416
-490 -732 -10 -90 -9 -217 2 -252 3 -8 13 -44 22 -79 9 -36 19 -71 22 -78 3
-8 -38 -58 -98 -118 l-103 -105 -23 47 c-91 188 -117 311 -117 543 0 157 3
185 27 272 65 243 149 389 322 563 195 196 384 301 637 354 117 25 347 28 469
6z m2178 -10 c19 -9 56 -39 81 -65 108 -111 105 -286 -6 -394 -50 -49 -99 -69
-176 -74 -85 -5 -152 16 -211 68 -63 56 -91 118 -91 205 0 119 50 201 157 255
57 29 68 31 137 28 45 -3 89 -12 109 -23z m-3685 4 c54 -15 120 -84 134 -141
20 -77 -1 -143 -62 -195 -90 -79 -223 -61 -293 40 -23 33 -28 51 -28 101 0 99
41 159 134 192 45 16 66 17 115 3z m2776 -288 c0 -3 -245 -250 -546 -547 -496
-492 -545 -543 -535 -562 6 -11 17 -51 25 -89 21 -97 134 -563 145 -595 5 -16
7 -28 5 -28 -2 0 -162 159 -355 353 l-351 352 683 677 683 676 123 -115 c68
-64 123 -118 123 -122z m-3093 -396 c-51 -167 -71 -315 -71 -515 0 -211 15
-310 69 -476 44 -134 104 -257 172 -351 29 -41 53 -77 53 -81 0 -4 -68 -75
-151 -157 -83 -83 -149 -141 -146 -130 3 11 17 49 32 83 38 91 51 171 37 220
-7 21 -42 76 -78 123 -166 210 -259 411 -296 643 -11 74 -4 413 11 531 7 56
46 375 57 473 l5 44 165 -164 164 -163 -23 -80z m3278 -523 c-165 -163 -398
-394 -518 -511 l-218 -215 -84 84 c-47 47 -85 88 -85 93 0 5 17 28 38 52 55
63 115 169 158 280 l38 97 350 345 350 344 136 -136 135 -135 -300 -298z
m-1634 419 c59 -58 69 -72 61 -88 -6 -10 -99 -105 -206 -212 l-196 -195 0 -96
0 -95 -160 -160 -160 -159 -37 34 c-21 19 -77 73 -126 120 l-87 85 412 416
c227 229 417 417 421 417 4 1 39 -29 78 -67z m2436 -248 c59 -65 154 -165 210
-223 56 -58 114 -118 128 -135 l27 -30 -6 -150 c-13 -340 -93 -660 -237 -949
-52 -105 -162 -286 -173 -286 -9 0 -181 183 -178 191 1 5 -4 8 -10 7 -7 -2
-12 3 -10 10 1 6 -2 11 -6 10 -5 -2 -35 26 -67 61 l-60 64 31 26 c66 56 151
206 203 358 56 164 71 258 77 488 7 240 -4 379 -42 533 -23 95 -25 142 -4 142
5 0 57 -53 117 -117z m-416 -396 c-6 -6 -11 -18 -10 -26 0 -11 3 -10 9 4 6 15
9 7 9 -30 0 -41 -4 -53 -23 -67 -23 -17 -24 -17 -18 4 8 31 -13 14 -28 -23
-11 -26 -11 -32 1 -41 11 -8 10 -9 -3 -4 -21 6 -53 -46 -44 -70 3 -8 2 -12 -4
-9 -12 7 -33 -32 -24 -47 4 -6 3 -8 -3 -5 -6 4 -39 -46 -74 -111 l-64 -117 1
-85 c1 -53 7 -102 18 -130 16 -43 10 -38 -116 94 -73 77 -133 145 -133 153 0
7 115 137 255 289 206 222 256 271 258 254 2 -12 -1 -27 -7 -33z m-31 -182 c0
-5 -5 -3 -10 5 -5 8 -10 20 -10 25 0 6 5 3 10 -5 5 -8 10 -19 10 -25z m-1785
-345 c0 -7 -300 -297 -390 -377 -38 -35 -76 -63 -85 -63 -39 0 -169 34 -163
43 3 6 1 7 -6 3 -24 -15 -209 59 -277 110 -17 13 -36 24 -43 24 -17 0 -9 23
10 28 11 3 11 1 -1 -8 -12 -9 -12 -11 -1 -8 8 2 15 12 17 22 3 20 83 93 97 88
5 -1 6 1 3 6 -8 14 70 85 85 77 8 -6 10 -4 4 5 -5 8 57 77 191 211 l198 198
181 -177 c99 -97 180 -179 180 -182z m1818 232 c-6 -61 -19 -88 -17 -34 1 32
15 104 19 100 2 -2 1 -31 -2 -66z m-602 -438 c57 -55 56 -139 -2 -188 -87 -73
-209 -14 -209 101 0 45 34 96 74 114 39 16 105 4 137 -27z m-2309 -251 c29
-21 55 -40 58 -43 12 -15 271 -138 325 -154 33 -10 64 -22 68 -26 4 -3 -18
-31 -50 -60 -32 -29 -118 -110 -192 -179 -73 -69 -137 -125 -142 -124 -4 2 -5
-5 -2 -14 5 -12 2 -15 -10 -10 -11 4 -14 2 -11 -7 7 -19 -16 -32 -26 -15 -5 7
-6 17 -3 23 3 5 1 6 -5 2 -7 -4 -44 24 -91 71 -44 43 -120 118 -170 167 -50
48 -91 95 -91 103 0 8 -4 11 -10 8 -5 -3 -10 -3 -10 2 0 13 284 292 297 292 7
1 37 -16 65 -36z m1761 -412 c-142 -140 -355 -347 -473 -460 l-215 -206 -160
3 -160 3 100 97 c55 54 304 295 554 535 l455 438 79 -78 79 -78 -259 -254z
m901 265 c18 -8 41 -24 50 -37 19 -27 21 -85 3 -114 -11 -18 -307 -313 -1242
-1238 l-270 -267 -161 0 -161 0 100 98 c55 53 186 183 292 287 703 699 1289
1271 1308 1277 34 10 45 9 81 -6z m-2786 -1146 c20 -7 32 -15 25 -17 -6 -2
-25 3 -42 12 -24 12 -31 22 -30 43 l2 27 4 -26 c3 -19 14 -29 41 -39z m1921
-347 c-15 -18 -16 -18 37 3 10 5 17 0 21 -15 3 -11 9 -21 14 -21 13 0 10 -22
-6 -44 -17 -22 -66 -31 -59 -11 3 7 1 16 -5 20 -6 3 -11 1 -11 -6 0 -18 -10
-5 -15 20 -3 16 1 21 16 21 11 0 18 -4 15 -9 -3 -5 1 -14 9 -21 8 -7 12 -16 9
-21 -10 -17 13 -9 31 11 18 20 8 29 -11 10 -8 -8 -15 -6 -24 4 -10 13 -9 17 4
22 9 3 13 10 10 15 -3 5 -10 7 -15 3 -6 -3 -17 -3 -26 0 -12 5 -13 9 -3 21 7
8 15 15 17 15 3 0 -1 -8 -8 -17z"/>
<path d="M5120 7880 c-43 -43 -12 -123 49 -123 63 0 98 76 56 123 -24 26 -79
26 -105 0z"/>
<path d="M6121 6858 c-59 -32 -85 -110 -56 -171 19 -41 86 -74 129 -63 38 9
94 63 101 96 8 38 -9 91 -40 120 -29 27 -99 37 -134 18z"/>
<path d="M3063 3560 c-43 -26 -56 -54 -50 -109 7 -61 41 -91 104 -91 38 0 50
5 79 34 39 39 44 77 18 127 -15 30 -65 59 -101 59 -10 0 -32 -9 -50 -20z"/>
<path d="M3379 3308 c-91 -23 -93 -179 -2 -209 39 -12 98 1 120 28 8 10 11 12
7 4 -4 -8 -3 -12 2 -8 5 3 11 32 12 65 3 50 0 64 -20 86 -29 33 -72 45 -119
34z"/>
<path d="M3629 3019 c-22 -23 -29 -41 -29 -69 0 -52 14 -86 42 -101 24 -13
103 -31 94 -21 -11 10 46 32 58 23 9 -7 12 -4 13 12 1 12 4 40 8 62 16 104
-115 170 -186 94z"/>
<path d="M7382 6174 c-70 -49 -66 -161 8 -199 37 -19 63 -19 100 0 44 23 70
62 70 107 0 32 -7 47 -34 74 -28 28 -41 34 -78 34 -24 0 -54 -7 -66 -16z"/>
<path d="M3780 6200 c-26 -26 -26 -81 -2 -103 44 -40 122 -7 122 51 0 60 -78
94 -120 52z"/>
<path d="M7196 4833 c-6 -14 -5 -15 5 -6 7 7 10 15 7 18 -3 3 -9 -2 -12 -12z"/>
<path d="M7217 4823 c-4 -3 -7 -11 -7 -17 0 -6 5 -5 12 2 6 6 9 14 7 17 -3 3
-9 2 -12 -2z"/>
<path d="M4870 4256 c0 -2 8 -10 18 -17 15 -13 16 -12 3 4 -13 16 -21 21 -21
13z"/>
<path d="M6155 2270 c3 -5 8 -10 11 -10 2 0 4 5 4 10 0 6 -5 10 -11 10 -5 0
-7 -4 -4 -10z"/>
<path d="M6155 2240 c-3 -5 -2 -10 4 -10 5 0 13 5 16 10 3 6 2 10 -4 10 -5 0
-13 -4 -16 -10z"/>
</g>
</svg>
